<svg height="512" viewBox="0 0 48 58" width="512" xmlns="http://www.w3.org/2000/svg"><g id="045---Vending-Machine" fill="none"><path id="Shape" d="m13 54-1.77 3.54c-.2113648.3394976-.6046733.5204195-1 .46h-5.23c-.55 0-1-.3-1-.67v-5.33z" fill="#b19046"/><path id="Shape" d="m44 52v5.33c0 .37-.45.67-1 .67h-5.28c-.3783915.0398849-.7466328-.1384215-.95-.46l-1.77-3.54z" fill="#b19046"/><path id="Shape" d="m45 1-2 53h-42c-.55228475 0-1-.4477153-1-1v-49z" fill="#f0c419"/><path id="Shape" d="m47 0h-4v54h4c.5522847 0 1-.4477153 1-1v-52c0-.55228475-.4477153-1-1-1z" fill="#c03a2b"/><path id="Shape" d="m25.26 8c-3.8.4-20.91 3.57-21.26 32.12 0-.12 0 1.09 0-31.12 0-.55228475.44771525-1 1-1z" fill="#3b97d3"/><path id="Shape" d="m26 9v31c0 .5522847-.4477153 1-1 1h-20c-.50862567.0036739-.9389766-.3750349-1-.88.35-28.55 17.46-31.72 21.26-32.12.4492179.12066414.7559235.53513119.74 1z" fill="#2980ba"/><path id="Shape" d="m9 45h12c1.6568542 0 3 1.3431458 3 3v1c0 .5522847-.4477153 1-1 1h-16c-.55228475 0-1-.4477153-1-1v-1c0-1.6568542 1.34314575-3 3-3z" fill="#e57e25"/><rect id="Rectangle-path" fill="#f3d55b" height="20" rx="1" width="9" x="30" y="8"/><path id="Shape" d="m35 13h-1c-.5522847 0-1-.4477153-1-1s.4477153-1 1-1h1c.5522847 0 1 .4477153 1 1s-.4477153 1-1 1z" fill="#f5efca"/><path id="Shape" d="m35 17h-1c-.5522847 0-1-.4477153-1-1s.4477153-1 1-1h1c.5522847 0 1 .4477153 1 1s-.4477153 1-1 1z" fill="#f5efca"/><path id="Shape" d="m35 21h-1c-.5522847 0-1-.4477153-1-1s.4477153-1 1-1h1c.5522847 0 1 .4477153 1 1s-.4477153 1-1 1z" fill="#f5efca"/><path id="Shape" d="m35 25h-1c-.5522847 0-1-.4477153-1-1s.4477153-1 1-1h1c.5522847 0 1 .4477153 1 1s-.4477153 1-1 1z" fill="#f5efca"/><path id="Shape" d="m38 39h-7c-.5522847 0-1-.4477153-1-1v-1.5c.0000001-2.4852813 2.0147187-4.4999999 4.5-4.4999999s4.4999999 2.0147186 4.5 4.4999999v1.5c0 .5522847-.4477153 1-1 1z" fill="#464f5d"/><path id="Shape" d="m10 12h2c.5522847 0 1 .4477153 1 1v4h-4v-4c0-.5522847.44771525-1 1-1z" fill="#26b99a"/><path id="Shape" d="m18 12h2c.5522847 0 1 .4477153 1 1v4h-4v-4c0-.5522847.4477153-1 1-1z" fill="#f29c1f"/><path id="Shape" d="m10 22h2c.5522847 0 1 .4477153 1 1v4h-4v-4c0-.5522847.44771525-1 1-1z" fill="#955ba5"/><path id="Shape" d="m18 22h2c.5522847 0 1 .4477153 1 1v4h-4v-4c0-.5522847.4477153-1 1-1z" fill="#26b99a"/><path id="Shape" d="m11 32c-1.1045695 0-2 .8954305-2 2v3h4v-3c0-1.1045695-.8954305-2-2-2z" fill="#26b99a"/><path id="Shape" d="m19 32c-1.1045695 0-2 .8954305-2 2v3h4v-3c0-1.1045695-.8954305-2-2-2z" fill="#cc4b4c"/><path id="Shape" d="m43 0v4h-43v-3c0-.55228475.44771525-1 1-1z" fill="#e64c3c"/><g fill="#fb7b76"><path id="Shape" d="m48 6v5l-5-2v-5z"/><path id="Shape" d="m48 16v5l-5-2v-5z"/><path id="Shape" d="m48 26v5l-5-2v-5z"/><path id="Shape" d="m48 36v5l-5-2v-5z"/><path id="Shape" d="m48 46v5l-5-2v-5z"/></g><path id="Shape" d="m22 18h-14c-.55228475 0-1-.4477153-1-1s.44771525-1 1-1h14c.5522847 0 1 .4477153 1 1s-.4477153 1-1 1z" fill="#95a5a5"/><path id="Shape" d="m22 28h-14c-.55228475 0-1-.4477153-1-1s.44771525-1 1-1h14c.5522847 0 1 .4477153 1 1s-.4477153 1-1 1z" fill="#95a5a5"/><path id="Shape" d="m22 38h-14c-.55228475 0-1-.4477153-1-1s.44771525-1 1-1h14c.5522847 0 1 .4477153 1 1s-.4477153 1-1 1z" fill="#95a5a5"/></g></svg>